<?xml version="1.0" encoding="utf-8"?>
<!-- Generator: Adobe Illustrator 25.2.0, SVG Export Plug-In . SVG Version: 6.00 Build 0)  -->
<svg version="1.1" id="Layer_1" xmlns="http://www.w3.org/2000/svg" xmlns:xlink="http://www.w3.org/1999/xlink" x="0px" y="0px"
	 viewBox="0 0 1514.2 462.1" style="enable-background:new 0 0 1514.2 462.1;" xml:space="preserve">
<style type="text/css">
	.st0{enable-background:new    ;}
	.st1{fill:#F20C32;}
	.st2{fill:#272727;}
	.st3{fill:#FFFFFF;}
	.st4{fill:#C80025;}
	.st5{fill:#009DF1;}
	.st6{fill:url(#SVGID_1_);}
	.st7{fill:url(#SVGID_2_);}
	.st8{fill:#606060;}
</style>
<g>
	<g class="st0">
		<path class="st1" d="M921.8,874.4c0,48.4-33.5,81.6-85.6,81.6H775V792.8h61.2C888.3,792.8,921.8,825.8,921.8,874.4z M833.7,921.7
			c30,0,47.7-17.2,47.7-47.2s-17.7-47.7-47.7-47.7h-18.8v94.9H833.7z"/>
		<path class="st1" d="M1044.2,824.7H984v33h53.3v30.7H984v35.8h60.2v31.9h-100V792.8h100V824.7z"/>
		<path class="st1" d="M1136.7,906.1l-29.3,50h-45.1l52.3-83l-53.5-80.2h46.3l32.8,49.3l28.8-49.3h45.1l-51.9,82.3l54,80.9H1170
			L1136.7,906.1z"/>
	</g>
	<g class="st0">
		<path class="st2" d="M1347.3,927.2h-60.9l-9.8,28.8H1235l59.1-163.3h46l59.1,163.3h-42.1L1347.3,927.2z M1316.9,836.8l-20,59.8
			h40.2L1316.9,836.8z"/>
		<path class="st2" d="M1481.5,897.5h-24.7v58.6H1417V792.8h64.4c40,0,60,22.6,60,52.6C1541.5,872.3,1523.2,897.5,1481.5,897.5z
			 M1478.5,865.8c15.8,0,22.6-7.9,22.6-20.5s-6.7-20.5-22.6-20.5h-21.6v40.9L1478.5,865.8L1478.5,865.8z"/>
		<path class="st2" d="M1626.7,897.5H1602v58.6h-39.8V792.8h64.4c40,0,60,22.6,60,52.6C1686.7,872.3,1668.3,897.5,1626.7,897.5z
			 M1623.6,865.8c15.8,0,22.6-7.9,22.6-20.5s-6.7-20.5-22.6-20.5H1602v40.9L1623.6,865.8L1623.6,865.8z"/>
	</g>
</g>
<g>
	<path class="st1" d="M438.2,177.9c20.3,0,37.8,9.3,47.2,23.3v-71h46.9v202.9h-46.9v-21.9c-8.5,14-24.7,24.1-47.2,24.1
		c-37.6,0-67.4-30.7-67.4-79C370.8,208.1,400.7,177.9,438.2,177.9z M451.9,218.8c-17.5,0-33.5,13.2-33.5,37.6s15.9,38.1,33.5,38.1
		c17.8,0,33.5-13.4,33.5-37.8C485.4,232.2,469.8,218.8,451.9,218.8z"/>
	<path class="st1" d="M634.3,335.3c-45,0-77.3-30.2-77.3-78.7s31.8-78.7,77.3-78.7c44.7,0,76.2,29.6,76.2,76.2c0,4.4-0.3,9-0.8,13.7
		H603.6c1.6,20,14,29.3,29.1,29.3c13.2,0,20.6-6.6,24.4-14.8H707C699.5,312.3,672.4,335.3,634.3,335.3z M603.8,241.8h58.7
		c0-16.7-13.2-26.3-28.8-26.3C618.4,215.5,606.6,224.8,603.8,241.8z"/>
	<path class="st1" d="M796.3,290.6l-24.7,42.5h-50.7l50.5-78.1l-51.8-74.9h52.6l29.3,42.2l24.7-42.2h50.7l-51.3,77l52.6,75.9h-52.6
		L796.3,290.6z"/>
</g>
<g class="st0">
	<path class="st3" d="M957.7,189.5c21.2,0,36.3,9.7,44,22.3v-20.2h43.7v142.7h-43.7v-20.2c-7.9,12.5-23,22.3-44.2,22.3
		c-34.8,0-62.7-28.6-62.7-73.7C894.8,217.6,922.7,189.5,957.7,189.5z M970.5,227.6c-16.4,0-31.2,12.3-31.2,35
		c0,22.8,14.8,35.6,31.2,35.6c16.6,0,31.2-12.5,31.2-35.3S987.1,227.6,970.5,227.6z"/>
	<path class="st3" d="M1164.9,189.5c35,0,62.9,28.1,62.9,73.1s-27.9,73.7-62.9,73.7c-21,0-36.1-10-44-22v88h-43.7V191.6h43.7v20.2
		C1128.8,199.2,1143.9,189.5,1164.9,189.5z M1151.8,227.6c-16.4,0-31.2,12.5-31.2,35.3s14.8,35.3,31.2,35.3
		c16.6,0,31.5-12.8,31.5-35.6C1183.3,239.9,1168.5,227.6,1151.8,227.6z"/>
	<path class="st3" d="M1338.6,189.5c35,0,62.9,28.1,62.9,73.1s-27.9,73.7-62.9,73.7c-21,0-36.1-10-44-22v88h-43.7V191.6h43.7v20.2
		C1302.5,199.2,1317.6,189.5,1338.6,189.5z M1325.5,227.6c-16.4,0-31.2,12.5-31.2,35.3s14.8,35.3,31.2,35.3
		c16.6,0,31.5-12.8,31.5-35.6C1357,239.9,1342.1,227.6,1325.5,227.6z"/>
</g>
<rect y="-283.2" class="st2" width="219.6" height="219.6"/>
<circle class="st2" cx="-199.8" cy="648.7" r="19.5"/>
<path class="st3" d="M264.6,245.1c-6.1,21.6-26,37.4-49.5,37.4s-43.4-15.8-49.5-37.4h-53.2v62.7c0,14.4,11.7,26.1,26.1,26.1h153.3
	c14.4,0,26.1-11.7,26.1-26.1v-62.7L264.6,245.1L264.6,245.1z"/>
<rect x="248.8" y="-283.2" class="st1" width="219.6" height="219.6"/>
<rect x="497.6" y="-283.2" class="st4" width="219.6" height="219.6"/>
<rect x="746.4" y="-283.2" class="st5" width="219.6" height="219.6"/>
<circle class="st3" cx="-199.8" cy="648.7" r="19.5"/>
<path class="st3" d="M-199.8,613.6c-19.4,0-35.1,15.7-35.1,35.1s15.7,35.1,35.1,35.1s35.1-15.7,35.1-35.1S-180.4,613.6-199.8,613.6z
	 M-199.8,678c-16.2,0-29.3-13.1-29.3-29.3s13.1-29.3,29.3-29.3s29.3,13.1,29.3,29.3S-183.6,678-199.8,678z"/>
<linearGradient id="SVGID_1_" gradientUnits="userSpaceOnUse" x1="-147.45" y1="-1634" x2="-147.45" y2="-1791.3" gradientTransform="matrix(1 0 0 -1 0 -1056)">
	<stop  offset="0" style="stop-color:#F20C32"/>
	<stop  offset="1" style="stop-color:#C80025"/>
</linearGradient>
<path class="st6" d="M-65.2,578h-164.5c-11.3,0-20.5,9.2-20.5,20.5v136.8h39.8c5.2,0,10.2-2.6,13.2-6.9l70.1-100.6
	c4.7-6.8,12.4-10.8,20.7-10.8h61.7v-18.5C-44.7,587.2-53.9,578-65.2,578z M-199.8,678c-16.2,0-29.3-13.1-29.3-29.3
	s13.1-29.3,29.3-29.3s29.3,13.1,29.3,29.3S-183.6,678-199.8,678z"/>
<linearGradient id="SVGID_2_" gradientUnits="userSpaceOnUse" x1="-147.45" y1="-1682.2" x2="-147.45" y2="-1839.5" gradientTransform="matrix(1 0 0 -1 0 -1056)">
	<stop  offset="0" style="stop-color:#F20C32"/>
	<stop  offset="1" style="stop-color:#C80025"/>
</linearGradient>
<path class="st7" d="M-106.4,626.2h61.7V763c0,11.3-9.2,20.5-20.5,20.5h-164.5c-11.3,0-20.5-9.2-20.5-20.5v-18.5h39.8
	c8.2,0,16-4,20.7-10.8l70.1-100.6C-116.6,628.8-111.6,626.2-106.4,626.2z"/>
<circle class="st5" cx="-199.8" cy="648.7" r="19.5"/>
<g>
	<path class="st3" d="M-62.8,86.8c0,2.4-0.3,4.8-0.8,7c-3.2,13.9-15.6,24.3-30.5,24.3s-27.3-10.4-30.5-24.3c-0.5-2.2-0.8-4.6-0.8-7
		s0.3-4.8,0.8-7c3.2-13.9,15.6-24.3,30.5-24.3s27.4,10.4,30.5,24.3C-63,82-62.8,84.3-62.8,86.8z"/>
</g>
<circle class="st2" cx="-199.8" cy="894" r="19.5"/>
<circle class="st3" cx="-199.8" cy="894" r="19.5"/>
<path class="st3" d="M-199.8,858.9c-19.4,0-35.1,15.7-35.1,35.1c0,19.4,15.7,35.1,35.1,35.1s35.1-15.7,35.1-35.1
	C-164.7,874.6-180.4,858.9-199.8,858.9z M-199.8,923.3c-16.2,0-29.3-13.1-29.3-29.3s13.1-29.3,29.3-29.3s29.3,13.1,29.3,29.3
	S-183.6,923.3-199.8,923.3z"/>
<path class="st3" d="M-65.2,823.3h-164.5c-11.3,0-20.5,9.2-20.5,20.5v136.8h39.8c5.2,0,10.2-2.6,13.2-6.9l70.1-100.6
	c4.7-6.8,12.4-10.8,20.7-10.8h61.7v-18.5C-44.7,832.5-53.9,823.3-65.2,823.3z M-199.8,923.3c-16.2,0-29.3-13.1-29.3-29.3
	s13.1-29.3,29.3-29.3s29.3,13.1,29.3,29.3S-183.6,923.3-199.8,923.3z"/>
<path class="st3" d="M-106.4,871.5h61.7v136.8c0,11.3-9.2,20.5-20.5,20.5h-164.5c-11.3,0-20.5-9.2-20.5-20.5v-18.5h39.8
	c8.2,0,16-4,20.7-10.8l70.1-100.6C-116.6,874.1-111.6,871.5-106.4,871.5z"/>
<circle class="st3" cx="-199.8" cy="894" r="19.5"/>
<polygon class="st8" points="-69.1,970.2 -85.4,954 -85.4,986.5 "/>
<path class="st5" d="M-29.7,214.7c0,2.4-0.3,4.8-0.8,7C-33.7,235.6-46.1,246-61,246s-27.3-10.4-30.5-24.3c-0.5-2.2-0.8-4.6-0.8-7
	s0.3-4.8,0.8-7c3.2-13.9,15.6-24.3,30.5-24.3s27.4,10.4,30.5,24.3C-30,209.9-29.7,212.2-29.7,214.7z"/>
<path class="st1" d="M318,154.4v62.7h-53.3c-6.1-21.6-26-37.5-49.5-37.5s-43.5,15.9-49.5,37.5h-53.2v-62.7
	c0-14.4,11.7-26.1,26.1-26.1h153.3C306.2,128.3,317.9,140,318,154.4z"/>
<g>
	<path class="st5" d="M238.6,231.1c0,5.3-1.7,10.1-4.7,14c-4.3,5.7-11.1,9.4-18.8,9.4s-14.5-3.7-18.8-9.4c-2.9-3.9-4.7-8.8-4.7-14
		s1.7-10.1,4.6-14c4.3-5.8,11.1-9.5,18.9-9.5c7.7,0,14.6,3.8,18.9,9.5C236.9,221,238.6,225.8,238.6,231.1z"/>
</g>
<path class="st2" d="M259.2,620.6c-3.3,21.3-21.8,37.6-44,37.6s-40.7-16.3-44-37.6h-58.8v69.7c0,14.4,11.7,26.1,26.1,26.1h153.3
	c14.4,0,26.1-11.7,26.1-26.1v-69.7H259.2L259.2,620.6z"/>
<path class="st1" d="M291.8,510.8H138.5c-14.4,0-26.1,11.7-26.1,26.1v69.7h58.8c3.3-21.3,21.8-37.6,44-37.6s40.7,16.3,44,37.6H318
	v-69.7C317.9,522.5,306.2,510.8,291.8,510.8z"/>
<g>
	<path d="M264.7,599.6c-6.1-21.6-26-37.5-49.5-37.5s-43.5,15.9-49.5,37.5h-55.8v28h55.8c6.1,21.6,26,37.4,49.5,37.4
		s43.4-15.8,49.5-37.4h55.8v-28H264.7z M215.1,637c-7.7,0-14.5-3.7-18.8-9.4c-2.9-3.9-4.7-8.8-4.7-14s1.7-10.1,4.6-14
		c4.3-5.8,11.1-9.5,18.9-9.5c7.7,0,14.6,3.8,18.9,9.5c2.9,3.9,4.6,8.7,4.6,14s-1.7,10.1-4.7,14C229.6,633.3,222.8,637,215.1,637z"/>
</g>
</svg>
