<?xml version="1.0" encoding="utf-8"?>
<!-- Generator: Adobe Illustrator 25.2.0, SVG Export Plug-In . SVG Version: 6.00 Build 0)  -->
<svg version="1.1" id="Layer_1" xmlns="http://www.w3.org/2000/svg" xmlns:xlink="http://www.w3.org/1999/xlink" x="0px" y="0px"
	 viewBox="0 0 225.4 226.4" style="enable-background:new 0 0 225.4 226.4;" xml:space="preserve">
<style type="text/css">
	.st0{enable-background:new    ;}
	.st1{fill:#F20C32;}
	.st2{fill:#272727;}
	.st3{fill:none;}
	.st4{fill:#C80025;}
	.st5{fill:#009DF1;}
	.st6{fill:#FFFFFF;}
	.st7{fill:url(#SVGID_1_);}
	.st8{fill:url(#SVGID_2_);}
	.st9{fill:#606060;}
	.st10{fill:#DEE2E6;}
</style>
<g>
	<g class="st0">
		<path class="st1" d="M819.8,757c0,48.4-33.5,81.6-85.6,81.6H673V675.4h61.2C786.3,675.4,819.8,708.4,819.8,757z M731.7,804.3
			c30,0,47.7-17.2,47.7-47.2s-17.7-47.7-47.7-47.7h-18.8v94.9H731.7z"/>
		<path class="st1" d="M942.2,707.3H882v33h53.3V771H882v35.8h60.2v31.9h-100V675.4h100V707.3z"/>
		<path class="st1" d="M1034.7,788.7l-29.3,50h-45.1l52.3-83l-53.5-80.2h46.3l32.8,49.3l28.8-49.3h45.1l-51.9,82.3l54,80.9H1068
			L1034.7,788.7z"/>
	</g>
	<g class="st0">
		<path class="st2" d="M1245.3,809.8h-60.9l-9.8,28.8H1133l59.1-163.3h46l59.1,163.3h-42.1L1245.3,809.8z M1214.9,719.4l-20,59.8
			h40.2L1214.9,719.4z"/>
		<path class="st2" d="M1379.5,780.1h-24.7v58.6H1315V675.4h64.4c40,0,60,22.6,60,52.6C1439.5,754.9,1421.2,780.1,1379.5,780.1z
			 M1376.5,748.4c15.8,0,22.6-7.9,22.6-20.5s-6.7-20.5-22.6-20.5h-21.6v40.9L1376.5,748.4L1376.5,748.4z"/>
		<path class="st2" d="M1524.7,780.1H1500v58.6h-39.8V675.4h64.4c40,0,60,22.6,60,52.6C1584.7,754.9,1566.3,780.1,1524.7,780.1z
			 M1521.6,748.4c15.8,0,22.6-7.9,22.6-20.5s-6.7-20.5-22.6-20.5H1500v40.9L1521.6,748.4L1521.6,748.4z"/>
	</g>
</g>
<rect x="262.6" y="-31.9" class="st3" width="649.8" height="241"/>
<rect x="147.3" y="-809.6" class="st3" width="516.3" height="259.9"/>
<text transform="matrix(1 0 0 1 147.3353 -575.881)" class="st1" style="font-family:'Poppins-Bold'; font-size:274.1861px;">dex</text>
<rect x="892.6" y="-15.5" class="st3" width="629.8" height="224.8"/>
<text transform="matrix(1 0 0 1 1072.4702 -522.8944)" class="st2" style="font-family:'Poppins-Bold'; font-size:255.7713px;">app</text>
<rect x="-102" y="-400.6" class="st2" width="219.6" height="219.6"/>
<circle class="st2" cx="-301.8" cy="531.3" r="19.5"/>
<path class="st2" d="M408.8,106.7c-3.2-13.9-15.6-24.3-30.5-24.3s-27.3,10.4-30.5,24.3c-0.5,2.2-0.8,4.6-0.8,7s0.3,4.8,0.8,7
	c3.2,13.9,15.6,24.3,30.5,24.3s27.4-10.4,30.5-24.3c0.5-2.2,0.8-4.6,0.8-7C409.6,111.2,409.3,108.9,408.8,106.7z M422.3,120.7
	c-3.3,21.3-21.8,37.6-44,37.6s-40.7-16.3-44-37.6h-58.8v69.7c0,14.4,11.7,26.1,26.1,26.1h153.3c14.4,0,26.1-11.7,26.1-26.1v-69.7
	H422.3L422.3,120.7z"/>
<rect x="146.8" y="-400.6" class="st1" width="219.6" height="219.6"/>
<rect x="395.6" y="-400.6" class="st4" width="219.6" height="219.6"/>
<rect x="644.4" y="-400.6" class="st5" width="219.6" height="219.6"/>
<circle class="st6" cx="-301.8" cy="531.3" r="19.5"/>
<path class="st6" d="M-301.8,496.2c-19.4,0-35.1,15.7-35.1,35.1c0,19.4,15.7,35.1,35.1,35.1s35.1-15.7,35.1-35.1
	C-266.7,511.9-282.4,496.2-301.8,496.2z M-301.8,560.6c-16.2,0-29.3-13.1-29.3-29.3S-318,502-301.8,502s29.3,13.1,29.3,29.3
	S-285.6,560.6-301.8,560.6z"/>
<linearGradient id="SVGID_1_" gradientUnits="userSpaceOnUse" x1="-249.45" y1="-1227.486" x2="-249.45" y2="-1384.786" gradientTransform="matrix(1 0 0 -1 0 -766.886)">
	<stop  offset="0" style="stop-color:#F20C32"/>
	<stop  offset="1" style="stop-color:#C80025"/>
</linearGradient>
<path class="st7" d="M-167.2,460.6h-164.5c-11.3,0-20.5,9.2-20.5,20.5v136.8h39.8c5.2,0,10.2-2.6,13.2-6.9l70.1-100.6
	c4.7-6.8,12.4-10.8,20.7-10.8h61.7v-18.5C-146.7,469.8-155.9,460.6-167.2,460.6z M-301.8,560.6c-16.2,0-29.3-13.1-29.3-29.3
	S-318,502-301.8,502s29.3,13.1,29.3,29.3S-285.6,560.6-301.8,560.6z"/>
<linearGradient id="SVGID_2_" gradientUnits="userSpaceOnUse" x1="-249.45" y1="-1275.6859" x2="-249.45" y2="-1432.986" gradientTransform="matrix(1 0 0 -1 0 -766.886)">
	<stop  offset="0" style="stop-color:#F20C32"/>
	<stop  offset="1" style="stop-color:#C80025"/>
</linearGradient>
<path class="st8" d="M-208.4,508.8h61.7v136.8c0,11.3-9.2,20.5-20.5,20.5h-164.5c-11.3,0-20.5-9.2-20.5-20.5v-18.5h39.8
	c8.2,0,16-4,20.7-10.8l70.1-100.6C-218.6,511.4-213.6,508.8-208.4,508.8z"/>
<circle class="st5" cx="-301.8" cy="531.3" r="19.5"/>
<g>
	<path class="st6" d="M414,113.7c0,2.4-0.3,4.8-0.8,7c-3.2,13.9-15.6,24.3-30.5,24.3s-27.3-10.4-30.5-24.3c-0.5-2.2-0.8-4.6-0.8-7
		s0.3-4.8,0.8-7c3.2-13.9,15.6-24.3,30.5-24.3s27.4,10.4,30.5,24.3C413.8,108.9,414,111.2,414,113.7z"/>
</g>
<circle class="st2" cx="-301.8" cy="776.6" r="19.5"/>
<circle class="st6" cx="-301.8" cy="776.6" r="19.5"/>
<path class="st6" d="M-301.8,741.5c-19.4,0-35.1,15.7-35.1,35.1c0,19.4,15.7,35.1,35.1,35.1s35.1-15.7,35.1-35.1
	C-266.7,757.2-282.4,741.5-301.8,741.5z M-301.8,805.9c-16.2,0-29.3-13.1-29.3-29.3s13.1-29.3,29.3-29.3c16.2,0,29.3,13.1,29.3,29.3
	S-285.6,805.9-301.8,805.9z"/>
<path class="st6" d="M-167.2,705.9h-164.5c-11.3,0-20.5,9.2-20.5,20.5v136.8h39.8c5.2,0,10.2-2.6,13.2-6.9l70.1-100.6
	c4.7-6.8,12.4-10.8,20.7-10.8h61.7v-18.5C-146.7,715.1-155.9,705.9-167.2,705.9z M-301.8,805.9c-16.2,0-29.3-13.1-29.3-29.3
	s13.1-29.3,29.3-29.3c16.2,0,29.3,13.1,29.3,29.3S-285.6,805.9-301.8,805.9z"/>
<path class="st6" d="M-208.4,754.1h61.7v136.8c0,11.3-9.2,20.5-20.5,20.5h-164.5c-11.3,0-20.5-9.2-20.5-20.5v-18.5h39.8
	c8.2,0,16-4,20.7-10.8l70.1-100.6C-218.6,756.7-213.6,754.1-208.4,754.1z"/>
<circle class="st6" cx="-301.8" cy="776.6" r="19.5"/>
<polygon class="st9" points="-171.1,852.8 -187.4,836.6 -187.4,869.1 "/>
<path class="st5" d="M409.6,113.7c0,2.4-0.3,4.8-0.8,7c-3.2,13.9-15.6,24.3-30.5,24.3s-27.3-10.4-30.5-24.3c-0.5-2.2-0.8-4.6-0.8-7
	s0.3-4.8,0.8-7c3.2-13.9,15.6-24.3,30.5-24.3s27.4,10.4,30.5,24.3C409.3,108.9,409.6,111.2,409.6,113.7z"/>
<path class="st1" d="M454.9,10.9H301.6c-14.4,0-26.1,11.7-26.1,26.1v69.7h58.8c3.3-21.3,21.8-37.6,44-37.6s40.7,16.3,44,37.6h58.8
	V37C481,22.6,469.3,10.9,454.9,10.9z"/>
<path class="st10" d="M162.1,127.7c-6.1,21.6-26,37.4-49.5,37.4s-43.4-15.8-49.5-37.4H9.9v62.7c0,14.4,11.7,26.1,26.1,26.1h153.3
	c14.4,0,26.1-11.7,26.1-26.1v-62.7L162.1,127.7L162.1,127.7z"/>
<path class="st10" d="M215.5,37v62.7h-53.3c-6.1-21.6-26-37.5-49.5-37.5S69.2,78.1,63.1,99.7H9.9V37c0-14.4,11.7-26.1,26.1-26.1
	h153.3C203.7,10.9,215.4,22.6,215.5,37z"/>
<g>
	<path class="st10" d="M136.1,113.7c0,5.3-1.7,10.1-4.7,14c-4.3,5.7-11.1,9.4-18.8,9.4s-14.5-3.7-18.8-9.4c-2.9-3.9-4.7-8.8-4.7-14
		s1.7-10.1,4.6-14c4.3-5.8,11.1-9.5,18.9-9.5c7.7,0,14.6,3.8,18.9,9.5C134.4,103.6,136.1,108.4,136.1,113.7z"/>
</g>
</svg>
